<?xml version="1.0" standalone="no"?>
<!DOCTYPE svg PUBLIC "-//W3C//DTD SVG 20010904//EN"
 "http://www.w3.org/TR/2001/REC-SVG-20010904/DTD/svg10.dtd">
<svg version="1.0" xmlns="http://www.w3.org/2000/svg"
 width="370.000000pt" height="370.000000pt" viewBox="0 0 370.000000 370.000000"
 preserveAspectRatio="xMidYMid meet">
<metadata>
Created by potrace 1.11, written by Peter Selinger 2001-2013
</metadata>
<g transform="translate(0.000000,370.000000) scale(0.100000,-0.100000)"
fill="#000000" stroke="none">
<path d="M2944 3133 c-21 -7 -76 -33 -123 -57 -47 -24 -117 -55 -156 -70 -38
-15 -83 -33 -100 -41 -66 -29 -194 -64 -255 -70 -205 -19 -371 -86 -495 -200
-58 -53 -191 -155 -360 -277 -66 -48 -136 -101 -155 -118 -19 -17 -46 -33 -60
-36 -45 -10 -143 -62 -226 -121 -214 -152 -308 -238 -302 -276 3 -20 10 -23
73 -27 l70 -5 -160 -106 c-88 -58 -196 -128 -240 -155 -44 -27 -84 -52 -90
-57 -5 -4 -44 -28 -85 -54 -224 -139 -280 -176 -276 -188 5 -18 34 -11 319 82
76 24 142 43 148 41 6 -2 -49 -43 -121 -92 -119 -80 -151 -108 -138 -122 8 -7
46 10 451 205 82 39 165 79 185 87 88 38 156 64 160 59 5 -4 -87 -137 -213
-307 -322 -437 -463 -646 -450 -668 4 -7 22 -2 51 14 24 13 52 22 62 19 13 -3
41 21 103 88 46 50 111 121 144 157 137 150 246 249 329 302 48 30 138 88 199
128 62 40 120 74 131 76 10 1 41 -4 70 -11 28 -7 65 -16 81 -18 17 -3 53 -10
80 -15 28 -5 65 -11 83 -12 18 -1 37 -7 41 -13 5 -5 21 -66 35 -135 20 -90 33
-132 50 -150 12 -14 42 -47 67 -73 24 -27 44 -54 44 -60 0 -5 -14 -15 -32 -21
-47 -16 -110 -67 -124 -99 -6 -15 -10 -29 -8 -32 3 -2 31 9 64 25 73 35 107
41 171 28 66 -13 114 -11 187 8 79 20 166 14 229 -17 26 -12 51 -19 55 -15 4
4 -11 25 -33 46 l-42 38 27 7 c25 7 46 11 101 18 32 5 116 -15 158 -37 52 -27
58 -8 10 36 -27 25 -63 45 -98 55 -74 21 -76 23 -43 44 37 25 84 24 116 -1 14
-11 28 -16 31 -11 11 17 -16 59 -46 72 -45 18 -146 6 -214 -26 -33 -15 -70
-27 -84 -26 -27 2 -74 49 -121 120 -29 44 -29 47 -29 189 l0 145 124 126 c156
159 211 222 297 342 137 194 241 280 409 340 160 57 231 143 289 349 11 41 29
86 39 100 22 29 131 86 222 116 89 29 90 47 3 62 -37 6 -97 14 -133 18 -36 3
-66 7 -68 9 -2 2 8 11 23 21 40 26 127 43 197 37 125 -9 128 -7 63 56 -113
108 -181 135 -297 117 -36 -5 -76 0 -177 24 -138 32 -175 34 -237 13z m-934
-1947 c24 -105 30 -117 124 -220 20 -22 36 -42 36 -45 0 -6 -75 -51 -85 -51
-12 0 -75 73 -113 130 -37 54 -37 57 -36 145 3 147 1 140 28 141 22 2 25 -5
46 -100z"/>
</g>
</svg>
